<?xml version="1.0" standalone="no"?>
<!DOCTYPE svg PUBLIC "-//W3C//DTD SVG 20010904//EN"
 "http://www.w3.org/TR/2001/REC-SVG-20010904/DTD/svg10.dtd">
<svg version="1.0" xmlns="http://www.w3.org/2000/svg"
 width="2048.000000pt" height="160.000000pt" viewBox="0 0 2048.000000 160.000000"
 preserveAspectRatio="xMidYMid meet">

<g transform="translate(0.000000,160.000000) scale(0.100000,-0.100000)"
fill="#000000" stroke="none">
<path d="M2500 1465 l0 -135 135 0 135 0 0 135 0 135 -135 0 -135 0 0 -135z"/>
<path d="M17027 1566 c-100 -37 -166 -111 -188 -213 -26 -114 19 -226 156
-388 41 -49 92 -124 113 -164 34 -69 37 -82 37 -160 0 -118 -34 -181 -122
-225 -50 -25 -152 -22 -194 7 -59 40 -81 93 -88 217 -3 60 -9 112 -13 115 -22
23 -36 -12 -61 -156 -15 -85 -27 -157 -27 -161 0 -15 87 -57 150 -73 92 -24
219 -18 282 13 65 32 125 94 156 160 22 48 27 71 26 142 0 121 -32 185 -180
374 -35 43 -77 106 -94 138 -89 167 -18 338 140 338 65 0 103 -20 125 -66 16
-34 21 -59 42 -214 6 -39 12 -55 23 -55 11 0 22 36 44 147 34 169 34 168 -52
209 -58 28 -217 37 -275 15z"/>
<path d="M0 960 l0 -600 318 0 c250 0 330 3 375 15 114 30 184 82 228 171 20
41 24 64 24 144 0 84 -3 101 -27 146 -31 58 -104 128 -153 145 l-33 12 51 31
c68 41 112 101 128 173 24 117 -23 238 -115 300 -87 59 -115 63 -473 63 l-323
0 0 -600z m590 402 c50 -24 72 -73 67 -145 -3 -48 -8 -63 -34 -88 -39 -40 -82
-48 -235 -49 l-128 0 0 150 0 150 148 0 c120 0 153 -3 182 -18z m6 -481 c23
-10 52 -34 65 -52 20 -29 24 -46 24 -111 0 -86 -15 -117 -76 -153 -28 -16 -57
-20 -191 -23 l-158 -4 0 181 0 181 148 0 c122 0 154 -4 188 -19z"/>
<path d="M18652 1438 c-5 -7 -20 -57 -32 -110 -12 -54 -27 -101 -33 -105 -7
-4 -34 -10 -62 -13 -37 -4 -51 -10 -53 -22 -3 -15 4 -18 47 -18 27 0 52 -4 55
-8 3 -5 -29 -154 -70 -333 -85 -366 -89 -413 -40 -456 49 -42 130 -28 187 34
43 45 109 195 109 245 0 38 -29 17 -46 -34 -25 -78 -61 -144 -86 -162 -42 -30
-88 -15 -88 28 0 44 144 652 158 669 12 13 31 17 84 17 61 0 68 2 68 20 0 18
-7 20 -64 20 -36 0 -68 5 -71 10 -4 6 3 53 15 106 12 52 19 101 16 109 -7 19
-79 20 -94 3z"/>
<path d="M4360 1350 l0 -70 -75 0 -75 0 0 -395 0 -395 75 0 75 0 0 -75 0 -75
248 2 247 3 3 72 3 73 75 0 75 0 -3 103 -3 102 -97 3 -98 3 0 -76 0 -75 -200
0 -200 0 0 115 0 115 150 0 150 0 0 105 0 105 -150 0 -150 0 0 115 0 115 198
-2 197 -3 3 -72 3 -73 100 0 100 0 -3 103 -3 102 -72 3 -73 3 0 69 0 70 -250
0 -250 0 0 -70z"/>
<path d="M6170 1275 l0 -145 -75 0 -76 0 3 -102 3 -103 73 -3 72 -3 0 -214 0
-214 73 -3 72 -3 3 -72 3 -73 244 0 244 0 3 73 3 72 78 3 78 3 -3 102 -3 102
-97 3 -98 3 0 -76 0 -75 -200 0 -200 0 0 185 0 185 220 0 220 0 0 105 0 105
-220 0 -220 0 0 145 0 145 -100 0 -100 0 0 -145z"/>
<path d="M9080 1275 l0 -145 -75 0 -76 0 3 -102 3 -103 73 -3 72 -3 0 -214 0
-215 75 0 75 0 0 -75 0 -75 250 0 250 0 0 75 0 75 75 0 76 0 -3 103 -3 102
-95 0 -95 0 -3 -73 -3 -72 -199 0 -200 0 0 185 0 185 223 2 222 3 3 103 3 102
-226 0 -225 0 0 145 0 145 -100 0 -100 0 0 -145z"/>
<path d="M11010 1320 l0 -100 100 0 100 0 0 100 0 100 -100 0 -100 0 0 -100z"/>
<path d="M15430 1275 l0 -145 -75 0 -76 0 3 -102 c2 -73 7 -103 16 -104 6 -1
39 -2 72 -3 l60 -1 0 -215 0 -215 75 0 75 0 0 -75 0 -75 248 2 247 3 3 73 3
72 75 0 75 0 -3 103 -3 102 -97 3 -98 3 0 -75 0 -76 -200 0 -200 0 0 185 0
185 223 2 222 3 3 103 3 102 -226 0 -225 0 0 145 0 145 -100 0 -100 0 0 -145z"/>
<path d="M1282 1220 c-133 -28 -232 -112 -267 -227 -6 -23 -6 -23 113 -23 118
0 120 0 137 26 33 50 137 70 210 40 40 -17 56 -43 58 -98 l2 -42 -147 -22
c-178 -26 -252 -52 -318 -111 -63 -57 -84 -109 -78 -202 3 -58 9 -78 33 -113
47 -65 109 -92 223 -96 129 -5 207 26 267 108 l23 32 7 -49 c12 -89 2 -83 141
-83 l124 0 -6 28 c-3 15 -8 34 -10 42 -3 8 -5 114 -4 236 1 328 -14 400 -98
476 -62 56 -138 80 -262 84 -58 2 -124 -1 -148 -6z m256 -513 c4 -51 -28 -116
-75 -147 -31 -21 -48 -25 -109 -25 -90 0 -114 17 -114 81 0 35 5 47 31 68 34
29 41 31 154 50 107 18 109 18 113 -27z"/>
<path d="M2340 1221 c-64 -20 -126 -71 -167 -137 -10 -16 -12 -7 -12 54 l-1
72 -120 0 -120 0 0 -425 0 -425 125 0 125 0 0 250 c0 268 4 294 51 336 34 30
85 44 168 47 l71 2 0 117 0 118 -47 -1 c-27 0 -59 -4 -73 -8z"/>
<path d="M3200 1224 c-46 -9 -144 -47 -180 -69 -43 -28 -110 -98 -138 -146
-46 -77 -65 -226 -41 -328 41 -179 192 -309 381 -329 92 -10 202 0 268 24 111
40 209 135 252 244 32 83 36 219 10 307 -40 130 -142 234 -272 277 -54 17
-227 30 -280 20z m201 -217 c66 -35 101 -98 107 -191 10 -162 -78 -276 -215
-276 -79 0 -167 76 -192 166 -35 128 20 274 119 313 47 19 133 13 181 -12z"/>
<path d="M17465 1208 c-63 -34 -113 -111 -140 -215 -20 -75 -19 -95 1 -91 11
2 24 30 39 81 25 89 50 128 89 142 21 7 30 5 47 -11 18 -19 21 -44 35 -355 8
-184 12 -360 8 -392 -13 -121 -112 -261 -205 -288 -59 -18 -85 -6 -114 52 -25
48 -28 50 -63 47 -50 -4 -71 -43 -50 -95 32 -86 132 -104 251 -45 158 78 376
343 493 600 69 152 97 256 101 387 4 105 2 124 -15 155 -15 27 -27 36 -51 38
-18 2 -39 -2 -47 -9 -22 -18 -17 -78 12 -139 55 -117 39 -260 -47 -434 -49
-98 -128 -226 -139 -226 -13 0 -18 76 -29 407 -11 321 -17 355 -62 387 -27 18
-84 21 -114 4z"/>
<path d="M18155 1201 c-81 -38 -125 -111 -125 -209 0 -71 25 -124 110 -237 85
-112 112 -166 112 -231 1 -92 -52 -140 -146 -131 -41 4 -55 11 -82 39 -35 39
-54 105 -54 189 0 43 -3 50 -17 47 -14 -3 -22 -25 -36 -103 -25 -143 -23 -155
37 -184 71 -36 196 -42 253 -13 118 61 166 206 108 330 -14 30 -59 102 -102
160 -84 116 -108 169 -99 220 13 80 89 128 160 98 40 -17 53 -49 62 -161 7
-97 12 -115 29 -115 8 0 15 2 15 5 0 3 11 59 26 126 28 136 28 139 -41 170
-54 25 -157 25 -210 0z"/>
<path d="M19102 1200 c-58 -26 -156 -121 -209 -202 -87 -134 -130 -282 -120
-418 9 -143 68 -219 173 -228 77 -6 130 17 193 83 50 53 121 180 121 217 0 37
-27 16 -50 -39 -31 -75 -110 -157 -168 -174 -37 -11 -48 -10 -77 4 -47 23 -66
56 -77 140 -15 102 -5 121 69 141 136 37 282 132 346 226 l18 25 -7 -25 c-4
-14 -9 -31 -11 -37 -3 -8 3 -13 13 -13 14 0 25 16 42 58 12 32 36 80 52 105
47 75 110 90 110 27 0 -17 -36 -182 -80 -367 -44 -185 -80 -342 -80 -350 0
-11 12 -13 51 -11 l52 3 28 100 c74 264 211 548 311 641 65 60 108 57 108 -9
0 -16 -36 -182 -80 -369 -44 -187 -80 -346 -80 -354 0 -21 90 -15 100 6 4 8
31 86 59 174 83 255 194 470 286 555 64 59 105 53 105 -17 0 -19 -32 -155 -72
-301 -84 -311 -89 -363 -43 -411 23 -24 37 -30 70 -30 82 0 142 65 195 208 34
95 37 115 14 110 -10 -2 -27 -34 -46 -84 -40 -113 -99 -169 -136 -132 -22 22
-13 73 58 345 80 307 85 350 41 394 -61 61 -165 27 -247 -82 -44 -58 -117
-180 -134 -223 -5 -14 -15 -26 -21 -26 -6 0 -9 6 -6 13 19 51 49 229 43 262
-14 75 -91 109 -164 71 -51 -26 -138 -131 -197 -236 -68 -122 -64 -115 -70
-108 -3 3 6 53 20 111 31 132 32 185 4 221 -16 20 -29 26 -60 26 -71 0 -125
-42 -177 -138 l-29 -53 0 56 c0 61 -20 100 -64 122 -37 19 -128 15 -177 -7z
m129 -41 c6 -12 9 -45 7 -73 -10 -116 -101 -238 -222 -295 -61 -30 -116 -40
-116 -23 0 50 79 225 138 306 69 95 165 137 193 85z"/>
<path d="M2510 785 l0 -425 125 0 125 0 0 425 0 425 -125 0 -125 0 0 -425z"/>
<path d="M5150 735 l0 -395 100 0 100 0 0 293 0 292 197 -2 198 -2 3 -291 2
-290 95 0 95 0 0 325 0 325 -75 0 -75 0 0 70 0 70 -320 0 -320 0 0 -395z"/>
<path d="M7210 1060 l0 -70 -75 0 -75 0 0 -250 0 -250 75 0 75 0 0 -75 0 -75
245 0 245 0 0 75 0 75 75 0 75 0 0 105 0 106 -97 -3 -98 -3 -3 -72 -3 -73
-194 0 -195 0 0 40 0 39 148 3 147 3 3 103 3 102 -151 0 -150 0 0 40 0 40 195
0 194 0 3 -67 3 -68 98 -3 97 -3 0 106 0 105 -75 0 -75 0 0 70 0 70 -245 0
-245 0 0 -70z"/>
<path d="M8150 1060 l0 -70 -75 0 -75 0 0 -325 0 -325 95 0 95 0 0 290 0 290
200 0 200 0 0 -70 0 -70 100 0 100 0 0 105 0 105 -75 0 -75 0 0 70 0 70 -245
0 -245 0 0 -70z"/>
<path d="M10120 1060 l0 -69 -72 -3 -73 -3 -3 -247 -2 -248 75 0 75 0 0 -75 0
-75 248 2 247 3 3 72 3 73 49 0 50 0 0 -75 0 -76 98 3 97 3 3 103 3 102 -75 0
-76 0 -2 218 -3 217 -72 3 -73 3 0 69 0 70 -250 0 -250 0 0 -70z m450 -325 l0
-185 -200 0 -200 0 0 185 0 185 200 0 200 0 0 -185z"/>
<path d="M11010 735 l0 -395 100 0 100 0 0 395 0 395 -100 0 -100 0 0 -395z"/>
<path d="M11320 735 l0 -395 95 0 95 0 0 290 0 290 200 0 200 0 2 -287 3 -288
98 -3 97 -3 0 326 0 325 -75 0 -75 0 0 70 0 70 -320 0 -320 0 0 -395z"/>
<path d="M12260 735 l0 -395 95 0 95 0 0 290 0 290 125 0 125 0 0 -290 0 -290
100 0 100 0 0 290 0 290 125 0 125 0 0 -290 0 -291 98 3 97 3 0 320 0 320 -72
3 -73 3 0 69 0 70 -175 0 -175 0 0 -70 0 -70 -50 0 -50 0 0 70 0 70 -245 0
-245 0 0 -395z"/>
<path d="M13620 1060 l0 -69 -72 -3 -73 -3 -3 -247 -2 -248 75 0 75 0 0 -75 0
-75 250 0 250 0 0 75 0 75 75 0 75 0 0 105 0 105 -100 0 -100 0 0 -75 0 -75
-200 0 -200 0 0 40 0 40 150 0 150 0 0 105 0 105 -150 0 -150 0 0 40 0 40 200
0 200 0 0 -70 0 -70 100 0 101 0 -3 103 -3 102 -72 3 -73 3 0 69 0 70 -250 0
-250 0 0 -70z"/>
<path d="M14410 735 l0 -395 100 0 100 0 0 290 0 289 196 3 c108 2 198 1 200
-1 2 -2 4 -134 4 -293 l0 -289 98 3 97 3 0 320 0 320 -72 3 -73 3 0 69 0 70
-325 0 -325 0 0 -395z"/>
</g>
</svg>
